HIERARCHY
ROOT Hips
{
 OFFSET 0.000000 0.000000 0.000000
 CHANNELS 6 Xposition Yposition Zposition Yrotation Xrotation Zrotation
 JOINT Chest
 {
  OFFSET 0.000000 9.585900 0.002600
  CHANNELS 3 Yrotation Xrotation Zrotation
  JOINT Chest2
  {
   OFFSET 0.000000 9.601200 -0.005300
   CHANNELS 3 Yrotation Xrotation Zrotation
   JOINT Chest3
   {
    OFFSET 0.000000 9.561800 0.000000
    CHANNELS 3 Yrotation Xrotation Zrotation
    JOINT Chest4
    {
     OFFSET 0.000000 9.552100 0.000000
     CHANNELS 3 Yrotation Xrotation Zrotation
     JOINT Neck
     {
      OFFSET 0.000000 14.453000 0.000000
      CHANNELS 3 Yrotation Xrotation Zrotation
      JOINT Head
      {
       OFFSET 0.000000 8.936500 -0.011300
       CHANNELS 3 Yrotation Xrotation Zrotation
       End Site
       {
        OFFSET 0.000000 17.073600 -0.006000
       }
      }
     }
     JOINT RightCollar
     {
      OFFSET -2.921100 9.558500 0.000000
      CHANNELS 3 Yrotation Xrotation Zrotation
      JOINT RightShoulder
      {
       OFFSET -13.519700 0.000000 0.000000
       CHANNELS 3 Yrotation Xrotation Zrotation
       JOINT RightElbow
       {
        OFFSET 0.000000 -29.696600 0.000000
        CHANNELS 3 Yrotation Xrotation Zrotation
        JOINT RightWrist
        {
         OFFSET 0.000000 -24.004700 0.000000
         CHANNELS 3 Yrotation Xrotation Zrotation
         End Site
         {
          OFFSET 0.000000 -17.728500 0.000000
         }
        }
       }
      }
     }
     JOINT LeftCollar
     {
      OFFSET 2.921100 9.558500 0.000000
      CHANNELS 3 Yrotation Xrotation Zrotation
      JOINT LeftShoulder
      {
       OFFSET 13.519700 0.000000 0.000000
       CHANNELS 3 Yrotation Xrotation Zrotation
       JOINT LeftElbow
       {
        OFFSET 0.000000 -29.696600 0.000000
        CHANNELS 3 Yrotation Xrotation Zrotation
        JOINT LeftWrist
        {
         OFFSET 0.000000 -24.004700 0.000000
         CHANNELS 3 Yrotation Xrotation Zrotation
         End Site
         {
          OFFSET 0.000000 -17.728500 0.000000
         }
        }
       }
      }
     }
    }
   }
  }
 }
 JOINT RightHip
 {
  OFFSET -7.771700 -0.012900 -0.001300
  CHANNELS 3 Yrotation Xrotation Zrotation
  JOINT RightKnee
  {
   OFFSET 0.000000 -40.869800 0.001200
   CHANNELS 3 Yrotation Xrotation Zrotation
   JOINT RightAnkle
   {
    OFFSET 0.000000 -39.717900 0.002100
    CHANNELS 3 Yrotation Xrotation Zrotation
    JOINT RightToe
    {
     OFFSET 0.000000 -4.965400 11.033500
     CHANNELS 3 Yrotation Xrotation Zrotation
     End Site
     {
      OFFSET 0.000000 -1.423100 5.872300
     }
    }
   }
  }
 }
 JOINT LeftHip
 {
  OFFSET 7.771700 -0.012900 -0.001300
  CHANNELS 3 Yrotation Xrotation Zrotation
  JOINT LeftKnee
  {
   OFFSET 0.000000 -40.869800 0.001200
   CHANNELS 3 Yrotation Xrotation Zrotation
   JOINT LeftAnkle
   {
    OFFSET 0.000000 -39.717900 0.002100
    CHANNELS 3 Yrotation Xrotation Zrotation
    JOINT LeftToe
    {
     OFFSET 0.000000 -4.965400 11.033500
     CHANNELS 3 Yrotation Xrotation Zrotation
     End Site
     {
      OFFSET 0.000000 -1.423100 5.872300
     }
    }
   }
  }
 }
}
MOTION
Frames: 5
Frame Time: 0.008333
1.624631 49.498017 41.632918 174.724499 -33.187862 -7.626320 6.267121 17.486352 6.881555 0.646657 2.091722 0.593520 1.045300 3.492663 1.001558 5.174092 15.310366 5.022183 -2.829366 17.300906 0.697467 -5.451556 -3.607312 2.232595 -0.045231 0.476356 -2.439487 2.566680 -2.809783 2.389093 71.849634 -68.505940 -90.160960 3.665298 -8.841352 13.929508 -8.568409 0.150524 -0.936906 0.363642 -1.670610 -2.308901 -83.712121 -68.541282 101.054008 6.599351 -5.385509 -21.041180 2.326990 -47.991877 9.158926 -91.761782 81.249181 -79.538939 -1.353326 -8.184452 -2.482853 -0.251652 0.544782 -0.546475 -11.223982 -51.627703 16.446057 -145.679081 83.524990 -152.997565 0.230237 -13.274284 7.413436 -0.191087 -0.583682 -0.072873
1.643652 49.540872 41.635683 174.640087 -33.130159 -7.615773 6.320954 17.449688 6.914585 0.646971 2.092968 0.590833 1.029313 3.540900 1.015888 5.189305 15.284927 5.008054 -2.825686 17.319092 0.696012 -5.448352 -3.575739 2.231044 -0.027633 0.434184 -2.442761 2.515120 -2.731578 2.283570 72.322241 -68.943821 -90.547844 3.497995 -8.927648 13.857822 -8.659591 0.164601 -0.984227 0.517756 -1.755379 -2.240489 -84.077716 -68.377301 101.503034 6.431285 -5.133785 -21.865756 2.231737 -48.048025 9.214445 -91.809532 81.300307 -79.608859 -1.196558 -8.231096 -2.470439 -0.379797 0.599344 -0.586339 -11.328134 -51.660054 16.596904 -145.754489 83.529082 -153.112408 0.279529 -13.226196 7.381192 -0.227032 -0.654278 -0.085427
1.653133 49.581206 41.630044 174.672621 -33.106315 -7.609051 6.273602 17.449598 6.889524 0.616855 2.149549 0.606028 1.050364 3.511234 1.004113 5.201567 15.258405 4.995519 -2.826277 17.342581 0.701472 -5.447933 -3.486438 2.249037 -0.024417 0.428445 -2.430381 2.468050 -2.666666 2.177831 72.781963 -69.335102 -90.935118 3.378831 -8.978893 13.803761 -8.709365 0.198102 -1.000867 0.585973 -1.809725 -2.216589 -84.408274 -68.162276 101.991425 6.269949 -4.867207 -22.797539 2.076290 -48.038766 9.176618 -92.074623 81.297143 -79.812557 -1.173626 -8.260482 -2.658310 -0.288972 0.598830 -0.461182 -11.477703 -51.656393 16.670531 -145.761095 83.528560 -153.190150 0.273695 -13.202285 7.360982 -0.211343 -0.688884 -0.088478
1.663783 49.616310 41.625806 174.627966 -33.082323 -7.570845 6.292800 17.439774 6.875678 0.601758 2.169679 0.605911 1.059716 3.507184 1.002296 5.210412 15.279796 5.000651 -2.827156 17.392071 0.711233 -5.440191 -3.445088 2.263018 -0.029134 0.391904 -2.413129 2.436742 -2.623510 2.059374 73.217382 -69.661042 -91.314744 3.308694 -8.991886 13.780098 -8.755113 0.209138 -1.022895 0.701423 -1.900876 -2.174069 -84.703996 -67.923193 102.437657 6.062292 -4.531774 -23.851045 1.945362 -48.025237 9.182560 -92.190785 81.327119 -79.918519 -1.104005 -8.374474 -2.802264 -0.278617 0.675646 -0.378661 -11.476258 -51.672552 16.677246 -145.764277 83.523058 -153.189903 0.288710 -13.187366 7.335781 -0.202749 -0.727591 -0.098198
1.675075 49.648214 41.621168 174.570144 -33.064219 -7.531542 6.285310 17.479244 6.857594 0.626955 2.146859 0.601616 1.082886 3.484465 0.997928 5.195274 15.365107 5.006301 -2.810124 17.400821 0.721573 -5.428044 -3.399009 2.275796 -0.048276 0.332984 -2.398251 2.460659 -2.634393 1.988928 73.593848 -69.867014 -91.674098 3.300074 -8.951075 13.793994 -8.786397 0.192616 -1.036869 0.827365 -2.000516 -2.147944 -85.044070 -67.602577 102.969949 5.755490 -4.066817 -25.018203 1.797487 -47.993729 9.224990 -92.177471 81.369457 -79.929642 -1.029384 -8.530901 -2.934943 -0.300669 0.778792 -0.310122 -11.505778 -51.683645 16.700597 -145.739683 83.504801 -153.161810 0.328258 -13.174277 7.288190 -0.181674 -0.768006 -0.104882
